<svg width="75" height="80" viewBox="0 0 75 80" fill="none" xmlns="http://www.w3.org/2000/svg">
<g clip-path="url(#clip0)">
<path d="M52.4462 5.0003C46.1117 5.0003 41.51 7.64795 37.5055 11.5043C33.4655 7.39714 28.1942 5.09481 22.5634 4.99999C10.4024 4.79729 0.261954 15.1628 0.0100535 28.1709C-0.183671 38.1732 5.33674 48.7882 16.4179 59.7212C24.3511 67.5486 32.7558 73.1118 34.36 74.1473C36.2923 75.3955 38.7148 75.3968 40.6498 74.1478C42.2541 73.1121 50.6592 67.5484 58.5925 59.7212C69.6739 48.7875 75.1943 38.1721 75 28.1694C74.749 15.2242 64.6669 4.79508 52.4462 5.0003Z" fill="#FF7C7C"/>
</g>
<defs>
<clipPath id="clip0">
<rect width="75" height="80" fill="white"/>
</clipPath>
</defs>
</svg>
