<svg width="234" height="336" viewBox="0 0 234 336" fill="none" xmlns="http://www.w3.org/2000/svg">
<path d="M162.004 261.772C162.004 271.952 153.748 326.844 143.559 326.844C133.384 326.844 125.132 271.948 125.132 261.772C125.132 251.596 133.388 243.336 143.559 243.336C153.748 243.336 162.004 251.596 162.004 261.772Z" fill="#EF6906"/>
<path d="M100.229 261.772C100.229 271.952 91.9732 326.844 81.7851 326.844C71.6094 326.844 63.3578 271.948 63.3578 261.772C63.3578 251.596 71.6136 243.336 81.7851 243.336C91.9732 243.336 100.229 251.596 100.229 261.772Z" fill="#EF6906"/>
<path d="M106.939 179.226C112.173 185.114 108.851 196.61 99.5178 204.919C90.1846 213.216 40.0049 249.298 34.7623 243.422C29.5364 237.526 71.2432 191.898 80.5764 183.601C89.9012 175.304 101.705 173.343 106.939 179.226Z" fill="#F7A006"/>
<path d="M118.41 179.226C113.176 185.114 116.498 196.61 125.831 204.919C135.165 213.216 185.344 249.298 190.587 243.422C195.813 237.526 154.106 191.898 144.773 183.601C135.448 175.304 123.644 173.343 118.41 179.226Z" fill="#F7A006"/>
<path d="M164.685 237.411C164.685 303.351 141.406 281.391 112.675 281.391C83.9525 281.391 60.6652 303.351 60.6652 237.411C60.6652 199.71 83.9609 169.149 112.675 169.149C141.397 169.154 164.685 199.714 164.685 237.411Z" fill="#F9BE03"/>
<path d="M102.532 327.177C102.532 334.972 93.2399 336 81.7896 336C70.3393 336 61.0474 334.976 61.0474 327.177C61.0474 319.377 70.3393 308.642 81.7896 308.642C93.2399 308.642 102.532 319.378 102.532 327.177Z" fill="#FF7300"/>
<path d="M102.532 327.177C102.532 334.972 93.2399 336 81.7896 336C70.3393 336 61.0474 334.976 61.0474 327.177" fill="#EF6906"/>
<path d="M164.311 327.177C164.311 334.972 155.019 336 143.568 336C132.118 336 122.826 334.976 122.826 327.177C122.826 319.377 132.118 308.642 143.568 308.642C155.019 308.642 164.311 319.378 164.311 327.177Z" fill="#FF7300"/>
<path d="M164.311 327.177C164.311 334.972 155.019 336 143.568 336C132.118 336 122.826 334.976 122.826 327.177" fill="#EF6906"/>
<path d="M179.983 137.725C179.983 170.613 149.846 187.145 112.683 187.145C75.5119 187.145 45.3666 170.613 45.3666 137.725C45.3661 104.83 75.5114 72.8675 112.683 72.8675C149.846 72.8675 179.983 104.83 179.983 137.725Z" fill="#F9BE03"/>
<path d="M180.496 137.639C180.496 170.526 150.359 187.058 113.196 187.058C76.0248 187.058 45.8795 170.526 45.8795 137.639" fill="#F7A006"/>
<path d="M80.6713 122.916C83.9957 122.916 86.6906 120.221 86.6906 116.897C86.6906 113.573 83.9957 110.878 80.6713 110.878C77.347 110.878 74.6521 113.573 74.6521 116.897C74.6521 120.221 77.347 122.916 80.6713 122.916Z" fill="#113E49"/>
<path d="M86.6903 116.897C86.6903 120.227 83.9933 122.916 80.6668 122.916C77.3409 122.916 74.6517 120.227 74.6517 116.897" fill="black"/>
<path d="M144.703 122.916C148.027 122.916 150.722 120.221 150.722 116.897C150.722 113.573 148.027 110.878 144.703 110.878C141.378 110.878 138.684 113.573 138.684 116.897C138.684 120.221 141.378 122.916 144.703 122.916Z" fill="#113E49"/>
<path d="M138.667 116.897C138.667 120.227 141.356 122.916 144.69 122.916C148.016 122.916 150.706 120.227 150.706 116.897" fill="black"/>
<path d="M131.69 131.279C131.69 134.683 123.179 174.449 112.674 174.449C102.17 174.449 93.6589 134.683 93.6589 131.279C93.6589 127.874 102.17 120.486 112.674 120.486C123.179 120.486 131.69 127.874 131.69 131.279Z" fill="#F9BE03"/>
<path d="M131.69 131.279C131.69 134.683 123.179 162.629 112.674 162.629C102.17 162.629 93.6589 134.683 93.6589 131.279C93.6589 127.874 102.17 120.486 112.674 120.486C123.179 120.486 131.69 127.874 131.69 131.279Z" fill="#F4E308"/>
<path d="M148.299 218.94V192.222H76.7807V218.94L66.053 227.846C61.421 231.703 58.9127 236.389 58.9012 241.205V290.119C58.9012 291.318 59.6663 292.468 61.0283 293.317C62.3903 294.165 64.2376 294.641 66.1638 294.641H158.916C160.842 294.641 162.689 294.165 164.051 293.317C165.413 292.468 166.178 291.318 166.178 290.119V241.205C165.711 236.439 163.245 231.833 159.026 227.846L148.299 218.94Z" fill="#7CB8EB"/>
<path d="M91.2511 191.498C89.6849 191.109 88.2112 190.621 87.1543 190.143C86.0973 189.664 85.5437 189.234 85.6152 188.946L86.9628 183.518L98.7737 186.451L97.4261 191.878C97.3546 192.166 96.6638 192.288 95.5058 192.216C94.3478 192.145 92.8173 191.886 91.2511 191.498V191.498Z" fill="#CDEEF6"/>
<path d="M136.635 191.562C134.703 191.939 132.827 192.185 131.421 192.244C130.014 192.304 129.192 192.173 129.135 191.881L128.058 186.362L142.626 183.518L143.703 189.036C143.76 189.329 143.048 189.76 141.722 190.233C140.397 190.707 138.567 191.185 136.635 191.562Z" fill="#CDEEF6"/>
<path d="M80.3568 247.884H144.723V259.017C144.723 264.331 141.332 269.428 135.297 273.186C129.261 276.944 121.075 279.055 112.54 279.055C104.004 279.055 95.8185 276.944 89.783 273.186C83.7475 269.428 80.3568 264.331 80.3568 259.017V247.884Z" fill="#CDEEF6"/>
<path d="M87.5088 198.901H94.6606V203.354H87.5088V198.901Z" fill="#4F83D1"/>
<path d="M130.419 198.901H137.571V203.354H130.419V198.901Z" fill="#4F83D1"/>
<path d="M91.0841 254.564H133.995V259.017H91.0841V254.564Z" fill="#4F83D1"/>
<path d="M141.147 283.508H155.451V287.961H141.147V283.508Z" fill="#4F83D1"/>
<path d="M69.6291 283.508H83.9327V287.961H69.6291V283.508Z" fill="#4F83D1"/>
<path d="M148.299 247.884C148.299 247.294 147.922 246.728 147.252 246.31C146.581 245.892 145.671 245.658 144.723 245.658H80.3567C79.4083 245.658 78.4988 245.892 77.8282 246.31C77.1576 246.728 76.7808 247.294 76.7808 247.884V259.017C76.7808 264.922 80.5483 270.585 87.2544 274.761C93.9605 278.936 103.056 281.282 112.54 281.282C122.024 281.282 131.119 278.936 137.825 274.761C144.531 270.585 148.299 264.922 148.299 259.017V247.884ZM141.147 259.017C141.147 263.741 138.133 268.271 132.768 271.612C127.403 274.952 120.127 276.829 112.54 276.829C104.953 276.829 97.6764 274.952 92.3115 271.612C86.9466 268.271 83.9326 263.741 83.9326 259.017V250.111H141.147V259.017Z" fill="#4F83D1"/>
<path d="M87.5088 198.901H94.6606V203.354H87.5088V198.901Z" fill="#4F83D1"/>
<path d="M130.419 198.901H137.571V203.354H130.419V198.901Z" fill="#4F83D1"/>
<path fill-rule="evenodd" clip-rule="evenodd" d="M169.525 238.348C168.401 233.906 165.799 229.659 161.887 225.879L151.875 217.568V191.591C151.875 191 151.498 190.434 150.827 190.017C150.157 189.599 149.247 189.364 148.299 189.364H144.723L144.25 183.562C144.25 181.791 143.576 182.213 143.576 182.213L137.571 183.871V189.364H130.419V185.161L126.708 185.586H125.494C125.494 185.586 124.819 185.586 124.145 186.261C123.47 186.936 123.267 189.364 123.267 189.364H101.812V186.549C101.812 186.549 101.326 186.549 98.506 186.217C97.8684 186.142 94.6581 185.437 94.6581 185.437L94.6602 189.364H87.5084V184.237C87.5084 183.646 87.5084 183.532 87.5084 183.532C84.4351 182.857 82.9879 182.213 81.6385 182.213L80.2891 183.562L80.3566 189.364H76.7807C75.8323 189.364 74.9228 189.599 74.2522 190.017C73.5816 190.434 73.2048 191 73.2048 191.591V217.568L63.1458 225.919C58.8221 229.55 56.1769 233.848 55.4969 238.348L55.3253 251.707V289.488C55.3291 291.277 56.4722 292.992 58.504 294.258C60.5358 295.523 63.2904 296.234 66.1639 296.237H158.916C161.789 296.234 164.544 295.523 166.576 294.258C168.607 292.992 169.75 291.277 169.754 289.488V251.707L169.525 238.348ZM161.522 291.111C162.213 290.68 162.601 290.097 162.602 289.488V240.574C162.156 236.223 159.877 232.023 155.994 228.395L145.438 219.645C144.974 219.26 144.723 218.791 144.723 218.309V193.817H80.3566V218.309C80.3566 218.791 80.1057 219.26 79.6414 219.645L68.9137 228.551C64.7481 232.024 62.4909 236.24 62.4771 240.574V289.488C62.478 290.097 62.8668 290.68 63.558 291.111C64.2492 291.541 65.1864 291.783 66.1639 291.784H158.916C159.893 291.783 160.83 291.541 161.522 291.111Z" fill="#4F83D1"/>
<path d="M91.0841 254.564H133.995V259.017H91.0841V254.564Z" fill="#4F83D1"/>
<path d="M141.147 283.508H155.451V287.961H141.147V283.508Z" fill="#4F83D1"/>
<path d="M69.6291 283.508H83.9327V287.961H69.6291V283.508Z" fill="#4F83D1"/>
<g clip-path="url(#clip0)">
<path d="M37.5473 252.2L34.8423 250.643L25.5403 266.805L9.55271 257.604C6.58178 262.766 8.358 269.359 13.5201 272.33C18.6819 275.3 25.2747 273.524 28.2454 268.362L37.5473 252.2Z" fill="#B5CDDF"/>
<path d="M50.4962 233.916C51.5054 232.162 50.9018 229.923 49.1486 228.914C47.3951 227.904 45.1555 228.508 44.1464 230.261L31.4633 252.299L37.8129 255.953L50.4962 233.916Z" fill="#FB7100"/>
<path d="M9.55262 257.604C6.5816 262.766 8.35782 269.359 13.52 272.33L18.8991 262.983L9.55262 257.604Z" fill="#C9E5F9"/>
<path d="M49.1485 228.914C47.395 227.904 45.1555 228.508 44.1463 230.261L31.4632 252.299L34.6381 254.126L49.1485 228.914Z" fill="#FF9845"/>
</g>
<g clip-path="url(#clip1)">
<path d="M231.981 207.888L220.479 218.237C218.729 219.812 216.053 219.742 214.387 218.077L209.875 213.566L197.711 225.729C197.257 224.671 196.398 223.828 195.351 223.392L207.527 211.217L203.046 206.736C201.38 205.071 201.31 202.394 202.885 200.643L213.234 189.141C214.934 187.251 217.872 187.187 219.657 188.972L232.15 201.466C233.942 203.257 233.865 206.192 231.981 207.888V207.888Z" fill="#E6E6FF"/>
<path d="M231.981 207.888L220.479 218.237C218.729 219.812 216.052 219.742 214.386 218.076L209.875 213.566L197.712 225.728C197.489 225.208 197.167 224.741 196.775 224.348L225.904 195.218L232.15 201.466C233.943 203.257 233.865 206.193 231.981 207.888V207.888Z" fill="#CACAFF"/>
<path d="M178.228 242.895C178.228 242.894 178.228 242.894 178.228 242.895C176.286 240.952 176.286 237.792 178.228 235.85L190.121 223.957C192.063 222.014 195.223 222.014 197.166 223.957C199.108 225.899 199.108 229.059 197.166 231.002L185.273 242.894C183.331 244.837 180.17 244.837 178.228 242.895Z" fill="#FFD84B"/>
<path d="M197.166 223.956C186.945 234.177 202.808 218.316 178.228 242.895C180.171 244.837 183.331 244.837 185.272 242.895C196.285 231.883 193.911 234.257 197.166 231.002C199.107 229.059 199.107 225.898 197.166 223.956V223.956Z" fill="#FFC200"/>
<path d="M197.166 231.002C199.108 229.059 199.108 225.899 197.166 223.957C195.223 222.014 192.063 222.014 190.121 223.957L187.614 226.464L194.659 233.509L197.166 231.002Z" fill="#FF7225"/>
<path d="M197.166 231.002L194.659 233.509L191.137 229.987C191.801 229.322 196.509 224.613 197.166 223.956C199.108 225.898 199.106 229.06 197.166 231.002V231.002Z" fill="#FF5500"/>
<path d="M210.975 205.45C210.326 204.802 210.326 203.75 210.975 203.102L216.533 197.545C217.182 196.896 218.233 196.896 218.881 197.545C219.53 198.193 219.53 199.244 218.881 199.893L213.323 205.45C212.675 206.099 211.624 206.099 210.975 205.45Z" fill="#3C2E9E"/>
<path d="M215.672 210.147C215.023 209.499 215.023 208.447 215.672 207.799L221.23 202.241C221.878 201.593 222.93 201.593 223.578 202.241C224.226 202.889 224.226 203.941 223.578 204.589L218.02 210.147C217.372 210.796 216.32 210.795 215.672 210.147Z" fill="#151282"/>
</g>
<path d="M152.742 57.3001H72.6078C70.6051 57.3001 68.9814 58.9238 68.9814 60.9265V86.159C68.9814 88.1617 70.6051 89.7854 72.6078 89.7854H152.742C154.745 89.7854 156.368 88.1617 156.368 86.159V60.9265C156.368 58.9238 154.745 57.3001 152.742 57.3001Z" fill="#295A96"/>
<path d="M152.742 57.3001H112.675V89.7854H152.742C154.745 89.7854 156.368 88.1617 156.368 86.159V60.9265C156.368 58.9238 154.745 57.3001 152.742 57.3001Z" fill="#163756"/>
<path d="M146.403 11.4899C143.355 11.4899 140.336 11.8719 137.488 12.6086C135.962 9.51255 133.321 6.72638 129.806 4.55754C125.043 1.61859 118.959 0 112.675 0C106.391 0 100.308 1.61859 95.5457 4.55788C92.0314 6.72673 89.3909 9.51308 87.8645 12.6093C85.017 11.8721 81.997 11.4899 78.9469 11.4899C64.4338 11.4899 52.6265 19.9772 52.6265 30.4097C52.6265 34.5899 54.4861 38.5523 58.005 41.8688C60.8435 44.5444 64.6749 46.6465 68.9813 47.9197V68.8193H156.368V47.9197C160.675 46.6465 164.506 44.5444 167.344 41.8688C170.863 38.5523 172.723 34.5899 172.723 30.4097C172.723 19.9772 160.916 11.4899 146.403 11.4899V11.4899Z" fill="#ECF6FE"/>
<path d="M156.552 68.8193V47.9198C160.81 46.6465 164.598 44.5444 167.405 41.8688C170.884 38.5523 172.723 34.5899 172.723 30.4097C172.723 19.9774 161.048 11.4899 146.698 11.4899C143.684 11.4899 140.699 11.8719 137.884 12.6086C136.374 9.51255 133.763 6.72638 130.288 4.55754C125.579 1.61859 119.563 0 113.349 0V68.8193H156.552Z" fill="#D3E9FD"/>
<defs>
<clipPath id="clip0">
<rect width="49.9277" height="49.9277" fill="white" transform="translate(0 234.289) rotate(-15.0785)"/>
</clipPath>
<clipPath id="clip1">
<rect width="56.6747" height="56.6747" fill="white" transform="translate(176.771 187.566)"/>
</clipPath>
</defs>
</svg>
