<svg width="30" height="41" viewBox="0 0 30 41" fill="none" xmlns="http://www.w3.org/2000/svg">
<path d="M29.3175 30.2371C29.3175 37.3996 22.7541 41 14.6606 41C6.5652 41 1.47618e-09 37.3996 1.47618e-09 30.2371C-0.000113674 23.073 6.56508 16.1121 14.6605 16.1121C22.7541 16.1121 29.3175 23.073 29.3175 30.2371Z" fill="#F9BE03"/>
<path d="M29.4293 30.2182C29.4293 37.3807 22.8659 40.9811 14.7724 40.9811C6.67701 40.9811 0.111816 37.3807 0.111816 30.2182" fill="#F7A006"/>
<path d="M7.68883 27.0119C8.41282 27.0119 8.99973 26.425 8.99973 25.701C8.99973 24.977 8.41282 24.3901 7.68883 24.3901C6.96484 24.3901 6.37793 24.977 6.37793 25.701C6.37793 26.425 6.96484 27.0119 7.68883 27.0119Z" fill="#113E49"/>
<path d="M8.99974 25.701C8.99974 26.4263 8.41237 27.012 7.68792 27.012C6.96358 27.012 6.37793 26.4263 6.37793 25.701" fill="black"/>
<path d="M21.6339 27.0119C22.3579 27.0119 22.9448 26.425 22.9448 25.701C22.9448 24.977 22.3579 24.3901 21.6339 24.3901C20.9099 24.3901 20.323 24.977 20.323 25.701C20.323 26.425 20.9099 27.0119 21.6339 27.0119Z" fill="#113E49"/>
<path d="M20.3193 25.701C20.3193 26.4263 20.9049 27.012 21.6311 27.012C22.3555 27.012 22.9411 26.4263 22.9411 25.701" fill="black"/>
<path d="M18.7999 28.8331C18.7999 29.5745 16.9465 38.235 14.6586 38.235C12.3708 38.235 10.5173 29.5745 10.5173 28.8331C10.5173 28.0917 12.3708 26.4827 14.6586 26.4827C16.9465 26.4827 18.7999 28.0917 18.7999 28.8331Z" fill="#F9BE03"/>
<path d="M18.7999 28.8331C18.7999 29.5745 16.9465 35.6607 14.6586 35.6607C12.3708 35.6607 10.5173 29.5746 10.5173 28.8331C10.5173 28.0917 12.3708 26.4827 14.6586 26.4827C16.9465 26.4827 18.7999 28.0917 18.7999 28.8331Z" fill="#F4E308"/>
<path d="M23.482 12.4791H6.03001C5.59384 12.4791 5.24023 12.8327 5.24023 13.2689V18.7641C5.24023 19.2003 5.59384 19.5539 6.03001 19.5539H23.482C23.9181 19.5539 24.2717 19.2003 24.2717 18.7641V13.2689C24.2717 12.8327 23.9182 12.4791 23.482 12.4791Z" fill="#295A96"/>
<path d="M23.4821 12.4791H14.7561V19.5539H23.4821C23.9182 19.5539 24.2718 19.2003 24.2718 18.7641V13.2689C24.2718 12.8327 23.9183 12.4791 23.4821 12.4791Z" fill="#163756"/>
<path d="M22.1015 2.50232C21.4377 2.50232 20.7802 2.58551 20.16 2.74596C19.8276 2.07169 19.2524 1.4649 18.487 0.992562C17.4497 0.352505 16.1247 0 14.7561 0C13.3876 0 12.0628 0.352505 11.0256 0.992638C10.2603 1.46498 9.6852 2.0718 9.35276 2.74612C8.73263 2.58555 8.0749 2.50232 7.41065 2.50232C4.24992 2.50232 1.67847 4.35073 1.67847 6.62276C1.67847 7.53315 2.08346 8.39611 2.84981 9.11838C3.46799 9.70109 4.30241 10.1589 5.2403 10.4362V14.9878H24.2718V10.4362C25.2097 10.1589 26.0441 9.70109 26.6623 9.11838C27.4286 8.39611 27.8336 7.53315 27.8336 6.62276C27.8337 4.35073 25.2622 2.50232 22.1015 2.50232V2.50232Z" fill="#ECF6FE"/>
<path d="M24.3117 14.9878V10.4362C25.239 10.1589 26.0641 9.70109 26.6753 9.11838C27.433 8.39611 27.8335 7.53315 27.8335 6.62276C27.8335 4.35076 25.2909 2.50232 22.1657 2.50232C21.5093 2.50232 20.8592 2.58551 20.246 2.74596C19.9173 2.07169 19.3486 1.4649 18.5918 0.992562C17.5662 0.352505 16.2561 0 14.9028 0V14.9878H24.3117Z" fill="#D3E9FD"/>
</svg>
