<svg width="75" height="80" viewBox="0 0 75 80" fill="none" xmlns="http://www.w3.org/2000/svg">
<g clip-path="url(#clip0)">
<path d="M41.7151 8.10615C40.1894 9.0428 38.775 10.1699 37.5003 11.4637C33.4602 7.35661 28.1889 5.05428 22.5582 4.95947C10.3971 4.75676 0.256736 15.1223 0.00483503 28.1303C-0.188889 38.1326 5.33152 48.7476 16.4126 59.6806C24.3459 67.508 32.7506 73.0712 34.3547 74.1068C36.2871 75.355 38.7096 75.3562 40.6446 74.1073C42.2489 73.0716 50.654 67.5079 58.5873 59.6806C69.6687 48.747 75.1891 38.1315 74.9948 28.1289C74.7438 15.1837 64.6617 4.7544 52.441 4.95962C50.5803 4.99097 48.7311 5.26958 46.9448 5.78791C46.3593 5.9577 46.0138 6.60187 46.173 7.22636C46.3323 7.85116 46.9365 8.21908 47.5215 8.04961C49.1312 7.58262 50.7981 7.33125 52.4758 7.30306C63.4514 7.11737 72.5713 16.4818 72.7981 28.1776C72.9785 37.4811 67.6954 47.5014 57.0954 57.9601C49.3176 65.6336 41.0794 71.0869 39.507 72.1023C38.2735 72.8985 36.7277 72.8997 35.4926 72.102C33.9202 71.0867 25.6822 65.6338 17.9047 57.9601C7.30479 47.5018 2.02152 37.482 2.20166 28.1787C2.42801 16.4828 11.5438 7.1243 22.5234 7.3029C27.8706 7.39299 32.8571 9.69122 36.5638 13.7738C36.808 14.0428 37.1493 14.1971 37.4998 14.1971C37.8503 14.1971 38.1917 14.0428 38.4358 13.7738C39.7293 12.349 41.2012 11.1257 42.811 10.1376C43.3368 9.8147 43.5178 9.09824 43.2151 8.53723C42.9126 7.97621 42.2407 7.78375 41.7151 8.10615V8.10615Z" fill="#FF7C7C"/>
<path d="M54.1028 54.5091C47.0122 61.5049 39.5273 66.575 37.4998 67.9017C35.3123 66.4707 27.0755 60.8842 19.6401 53.2439C19.2029 52.7947 18.5076 52.8087 18.0866 53.2748C17.6656 53.7408 17.6786 54.4828 18.1156 54.9318C26.0804 63.1161 34.9417 68.991 36.6371 70.0855C37.1691 70.429 37.8301 70.4293 38.3624 70.0855C39.9029 69.091 47.9729 63.7494 55.5947 56.2294C65.5467 46.4105 70.593 37.1274 70.593 28.6385C70.593 18.172 62.61 9.65698 52.7978 9.65698C46.4813 9.65698 40.7045 13.1869 37.5001 18.9351C34.2955 13.1867 28.5188 9.65698 22.2024 9.65698C12.3901 9.65698 4.40704 18.1722 4.40704 28.6385C4.40704 35.4885 7.73949 42.9245 14.3119 50.7395C14.7173 51.2213 15.4117 51.2613 15.8634 50.8293C16.315 50.3971 16.3525 49.6562 15.9475 49.1744C9.74775 41.8025 6.60416 34.8933 6.60416 28.6387C6.60416 19.4646 13.6014 12.0009 22.2022 12.0009C28.0203 12.0009 33.316 15.4174 36.0225 20.9174C36.3124 21.5063 36.8785 21.872 37.4998 21.8722C38.113 21.8722 38.6836 21.5143 38.9774 20.9174C41.6839 15.4175 46.9796 12.001 52.7977 12.001C61.3985 12.001 68.3956 19.4648 68.3956 28.6388C68.3956 36.3377 63.4533 45.2835 54.1028 54.5091Z" fill="#FF7C7C"/>
</g>
<defs>
<clipPath id="clip0">
<rect width="75" height="80" fill="white"/>
</clipPath>
</defs>
</svg>
